<svg width="927" height="719" viewBox="0 0 927 719" fill="none" xmlns="http://www.w3.org/2000/svg">
<g filter="url(#filter0_f_13_23578)">
<circle cx="275.037" cy="275.036" r="109.12" fill="#CA75DF" fill-opacity="0.3"/>
</g>
<g filter="url(#filter1_f_13_23578)">
<circle cx="712.547" cy="503.602" r="87.0891" fill="#CA75DF" fill-opacity="0.3"/>
</g>
<path opacity="0.1" d="M550.073 275.036C550.073 426.935 426.935 550.073 275.036 550.073C123.138 550.073 0 426.935 0 275.036C0 123.138 123.138 0 275.036 0C426.935 0 550.073 123.138 550.073 275.036ZM2.42627 275.036C2.42627 425.595 124.478 547.646 275.036 547.646C425.595 547.646 547.646 425.595 547.646 275.036C547.646 124.478 425.595 2.42627 275.036 2.42627C124.478 2.42627 2.42627 124.478 2.42627 275.036Z" fill="#CA75DF" fill-opacity="0.3"/>
<path opacity="0.1" d="M927 503.602C927 622.041 830.986 718.055 712.547 718.055C594.108 718.055 498.095 622.041 498.095 503.602C498.095 385.163 594.108 289.15 712.547 289.15C830.986 289.15 927 385.163 927 503.602ZM499.987 503.602C499.987 620.996 595.153 716.163 712.547 716.163C829.941 716.163 925.108 620.996 925.108 503.602C925.108 386.208 829.941 291.041 712.547 291.041C595.153 291.041 499.987 386.208 499.987 503.602Z" fill="#CA75DF" fill-opacity="0.3"/>
<path opacity="0.1" d="M512.552 275.036C512.552 406.213 406.213 512.552 275.036 512.552C143.86 512.552 37.5205 406.213 37.5205 275.036C37.5205 143.86 143.86 37.5206 275.036 37.5206C406.213 37.5206 512.552 143.86 512.552 275.036ZM39.6158 275.036C39.6158 405.056 145.017 510.457 275.036 510.457C405.055 510.457 510.457 405.056 510.457 275.036C510.457 145.017 405.055 39.6159 275.036 39.6159C145.017 39.6159 39.6158 145.017 39.6158 275.036Z" fill="#CA75DF" fill-opacity="0.3"/>
<path opacity="0.1" d="M897.74 503.602C897.74 605.882 814.827 688.796 712.547 688.796C610.267 688.796 527.354 605.882 527.354 503.602C527.354 401.323 610.267 318.409 712.547 318.409C814.827 318.409 897.74 401.323 897.74 503.602ZM528.987 503.602C528.987 604.98 611.17 687.162 712.547 687.162C813.924 687.162 896.107 604.98 896.107 503.602C896.107 402.225 813.924 320.043 712.547 320.043C611.17 320.043 528.987 402.225 528.987 503.602Z" fill="#CA75DF" fill-opacity="0.3"/>
<path opacity="0.1" d="M476.408 275.036C476.408 386.251 386.251 476.408 275.036 476.408C163.821 476.408 73.6641 386.251 73.6641 275.036C73.6641 163.822 163.821 73.6643 275.036 73.6643C386.251 73.6643 476.408 163.822 476.408 275.036ZM75.4405 275.036C75.4405 385.27 164.803 474.632 275.036 474.632C385.27 474.632 474.632 385.27 474.632 275.036C474.632 164.803 385.27 75.4407 275.036 75.4407C164.803 75.4407 75.4405 164.803 75.4405 275.036Z" fill="#CA75DF" fill-opacity="0.3"/>
<path opacity="0.1" d="M869.514 503.602C869.514 590.293 799.237 660.569 712.547 660.569C625.857 660.569 555.58 590.293 555.58 503.602C555.58 416.912 625.857 346.635 712.547 346.635C799.237 346.635 869.514 416.912 869.514 503.602ZM556.965 503.602C556.965 589.528 626.621 659.185 712.547 659.185C798.473 659.185 868.129 589.528 868.129 503.602C868.129 417.677 798.473 348.02 712.547 348.02C626.621 348.02 556.965 417.677 556.965 503.602Z" fill="#CA75DF" fill-opacity="0.3"/>
<rect x="717.711" y="54.3877" width="26.1612" height="26.1612" fill="#CA75DF" fill-opacity="0.3"/>
<circle cx="878.292" cy="206.708" r="14.6296" fill="#1A1445" fill-opacity="0.3"/>
<circle cx="862.113" cy="140.96" r="14.6296" fill="#1A1445" fill-opacity="0.3"/>
<circle cx="716.162" cy="52.8387" r="14.6296" fill="#1A1445" fill-opacity="0.3"/>
<circle cx="745.421" cy="52.8387" r="14.6296" fill="#1A1445" fill-opacity="0.3"/>
<circle cx="862.113" cy="170.22" r="14.6296" fill="#1A1445" fill-opacity="0.3"/>
<circle cx="716.162" cy="82.0979" r="14.6296" fill="#1A1445" fill-opacity="0.3"/>
<circle cx="745.421" cy="82.0979" r="14.6296" fill="#1A1445" fill-opacity="0.3"/>
<defs>
<filter id="filter0_f_13_23578" x="62.6493" y="62.6491" width="424.775" height="424.775" filterUnits="userSpaceOnUse" color-interpolation-filters="sRGB">
<feFlood flood-opacity="0" result="BackgroundImageFix"/>
<feBlend mode="normal" in="SourceGraphic" in2="BackgroundImageFix" result="shape"/>
<feGaussianBlur stdDeviation="51.6339" result="effect1_foregroundBlur_13_23578"/>
</filter>
<filter id="filter1_f_13_23578" x="522.19" y="313.245" width="380.714" height="380.714" filterUnits="userSpaceOnUse" color-interpolation-filters="sRGB">
<feFlood flood-opacity="0" result="BackgroundImageFix"/>
<feBlend mode="normal" in="SourceGraphic" in2="BackgroundImageFix" result="shape"/>
<feGaussianBlur stdDeviation="51.6339" result="effect1_foregroundBlur_13_23578"/>
</filter>
</defs>
</svg>
